<svg xmlns="http://www.w3.org/2000/svg" xmlns:xlink="http://www.w3.org/1999/xlink" version="1.1" width="256" height="256" viewBox="0 0 256 256" xml:space="preserve">

<defs>
</defs>
<g style="stroke: none; stroke-width: 0; stroke-dasharray: none; stroke-linecap: butt; stroke-linejoin: miter; stroke-miterlimit: 10; fill: none; fill-rule: nonzero; opacity: 1;" transform="translate(1.4065934065934016 1.4065934065934016) scale(2.81 2.81)" >
	<path d="M 88.8 61.679 l -14.931 -8.62 l -14.931 -8.62 c -1.599 -0.923 -3.599 0.231 -3.599 2.078 v 10.865 C 30.948 54.397 11.99 33.57 11.99 8.384 c 0 -0.985 -0.799 -1.784 -1.784 -1.784 H 1.784 C 0.799 6.601 0 7.399 0 8.384 c 0 31.804 24.321 58.03 55.341 61.068 v 11.545 c 0 1.847 1.999 3.001 3.599 2.078 l 14.931 -8.62 l 14.931 -8.62 C 90.4 64.911 90.4 62.602 88.8 61.679 z" style="stroke: none; stroke-width: 1; stroke-dasharray: none; stroke-linecap: butt; stroke-linejoin: miter; stroke-miterlimit: 10; fill: rgb(0,0,0); fill-rule: nonzero; opacity: 1;" transform=" matrix(1 0 0 1 0 0) " stroke-linecap="round" />
</g>
</svg>