<svg xmlns="http://www.w3.org/2000/svg" xmlns:xlink="http://www.w3.org/1999/xlink" version="1.1" width="256" height="256" viewBox="0 0 256 256" xml:space="preserve">

<defs>
</defs>
<g style="stroke: none; stroke-width: 0; stroke-dasharray: none; stroke-linecap: butt; stroke-linejoin: miter; stroke-miterlimit: 10; fill: none; fill-rule: nonzero; opacity: 1;" transform="translate(1.4065934065934016 1.4065934065934016) scale(2.81 2.81)" >
	<path d="M 78.362 56.638 H 11.637 C 5.22 56.638 0 51.417 0 45 s 5.22 -11.637 11.637 -11.637 h 66.725 C 84.779 33.363 90 38.583 90 45 S 84.779 56.638 78.362 56.638 z M 11.637 35.363 C 6.323 35.363 2 39.686 2 45 c 0 5.314 4.323 9.638 9.637 9.638 h 66.725 C 83.677 54.638 88 50.314 88 45 c 0 -5.314 -4.323 -9.637 -9.638 -9.637 H 11.637 z" style="stroke: none; stroke-width: 1; stroke-dasharray: none; stroke-linecap: butt; stroke-linejoin: miter; stroke-miterlimit: 10; fill: rgb(0,0,0); fill-rule: nonzero; opacity: 1;" transform=" matrix(1 0 0 1 0 0) " stroke-linecap="round" />
	<path d="M 56.681 55.637 H 11.637 C 5.763 55.637 1 50.875 1 45 v 0 c 0 -5.875 4.763 -10.637 10.637 -10.637 h 45.044 c 5.875 0 10.637 4.763 10.637 10.637 v 0 C 67.319 50.875 62.556 55.637 56.681 55.637 z" style="stroke: none; stroke-width: 1; stroke-dasharray: none; stroke-linecap: butt; stroke-linejoin: miter; stroke-miterlimit: 10; fill: rgb(0,0,0); fill-rule: nonzero; opacity: 1;" transform=" matrix(1 0 0 1 0 0) " stroke-linecap="round" />
</g>
</svg>