<svg xmlns="http://www.w3.org/2000/svg" xmlns:xlink="http://www.w3.org/1999/xlink" version="1.1" width="256" height="256" viewBox="0 0 256 256" xml:space="preserve">

<defs>
</defs>
<g style="stroke: none; stroke-width: 0; stroke-dasharray: none; stroke-linecap: butt; stroke-linejoin: miter; stroke-miterlimit: 10; fill: none; fill-rule: nonzero; opacity: 1;" transform="translate(1.4065934065934016 1.4065934065934016) scale(2.81 2.81)" >
	<path d="M 45 0 C 20.147 0 0 20.147 0 45 c 0 24.853 20.147 45 45 45 s 45 -20.147 45 -45 C 90 20.147 69.853 0 45 0 z M 68.371 32.98 l -26.521 30 c -0.854 0.967 -2.083 1.52 -3.372 1.52 c -0.01 0 -0.02 0 -0.029 0 c -1.3 -0.009 -2.533 -0.579 -3.381 -1.563 L 21.59 47.284 c -1.622 -1.883 -1.41 -4.725 0.474 -6.347 c 1.884 -1.621 4.725 -1.409 6.347 0.474 l 10.112 11.744 L 61.629 27.02 c 1.645 -1.862 4.489 -2.037 6.352 -0.391 C 69.843 28.275 70.018 31.119 68.371 32.98 z" style="stroke: none; stroke-width: 1; stroke-dasharray: none; stroke-linecap: butt; stroke-linejoin: miter; stroke-miterlimit: 10; fill: rgb(0,0,0); fill-rule: nonzero; opacity: 1;" transform=" matrix(1 0 0 1 0 0) " stroke-linecap="round" />
</g>
</svg>